<?xml version="1.0" encoding="UTF-8"?>
<svg id="a" data-name="Layer 1" xmlns="http://www.w3.org/2000/svg" viewBox="0 0 1440 458">
  <defs>
    <style>
      .b {
        fill: #18181b;
      }
    </style>
  </defs>
  <g>
    <polygon class="b" points="1274.36 457.01 1274.26 458 1216.55 458 1216.48 457 1274.36 457.01"/>
    <g>
      <path class="b" d="M3.54,175.39v-54.77c.71-.64,3.91-3.66,5.47-3.66l278.89-.02c4.01,0,7.56,2.68,7.57,6.69l.05,48.84c0,3.45-2.56,6.97-6.63,6.97l-277.19.02c-4.04,0-6.19-1.53-8.15-4.07Z"/>
      <path class="b" d="M188.77,284.82c0,3.18-3.12,5.92-6.22,5.92h-116.47s.01,38.07.01,38.07l.05,118.11c-.14,4.13-2.9,7.02-6.82,7.44l-49.96.07-5.82-4.39v-217.93c.76-1.06,3.37-3.85,5.18-3.85h173.8c3.08-.02,6.23,2.75,6.23,5.89l.02,50.67Z"/>
      <path class="b" d="M386.47,2.6c23.49,2.96,40.64,22.89,40.01,46.11-.63,23.45-19.14,42.16-41.85,43.72-23.77,1.63-44.41-15.53-47.7-38.24-3.44-23.76,11.67-45.37,35-50.73l2.77-1.21,11.76.35Z"/>
      <path class="b" d="M445.3,235.1v44.77c-.21,2.99-2.76,5.46-5.82,5.45h-27.89s0,49.67,0,49.67v113.01c.01,3.4-2.58,6.37-6.02,6.37h-50.8c-3.51.02-6.21-2.77-6.21-6.39v-114.78l.05-47.88h-55.93l-.02-56.86,55.96-.06-.02-102.74c.05-3.73,2.3-7.24,5.85-8.41l46.34-15.31c2.29-.76,6.38.55,7.94,2.01,1.29,1.22,2.85,4.39,2.85,6.82v117.6l26.76.05c3.98.01,7,2.45,6.95,6.68Z"/>
      <path class="b" d="M825.64,447.88l-41.68-77.63-3.09-6.38c8-5.41,14.2-10.67,19.99-17.92,8.89-11.14,15.75-23.68,17.31-38.39,4.65-43.8-29.06-85.8-72.14-85.83l-106.25-.07c-2.69,0-5.88,3.02-5.88,5.95l-.11,114.43v106.58c0,2.91,2.75,5.77,5.52,5.77h48.88c3.59,0,6.09-2.83,6.06-6.34v-70.84s25.18-.09,25.18-.09l38.25,72.92c1.34,2.56,4.24,4.37,7,4.37h56.92c.97,0,3.36-1,3.98-1.74.75-.89.75-3.52.06-4.79ZM694.23,270.08l35.74.11c6.25.02,12.18,2.72,17.01,7.11,8.93,8.13,12.27,19.71,8.18,31.03-3.33,9.24-12.79,18.41-24.14,18.46l-36.79.16v-56.87Z"/>
      <path class="b" d="M1066.68,335.17c-4-63.57-59.2-111.77-122.89-108.22-56.76,3.15-103.56,47.49-108.86,104.19-6.05,64.77,40.75,119.13,104.16,126.43h22.52c61.94-6.6,108.99-60.04,105.07-122.4ZM947.51,398.19c-32.41-1.55-52.54-33.43-47.54-66,1.72-11.21,6.22-21.26,13.89-29.65,16.98-18.58,45.53-21.78,65.86-6.75,12.63,9.34,19.88,23.53,21.61,39.04,3.83,34.35-19.63,64.99-53.82,63.36Z"/>
      <path class="b" d="M598.69,234.04v44.94c0,2.65-2.4,5.68-5.14,5.69l-28.58.09.04,52.33.02,110.91c0,3.47-2.81,6.38-6.2,6.38h-50.81c-3.47,0-6.03-2.93-6.03-6.39v-112.67s.01-50.57.01-50.57l-23.89-.04c-2.71-.01-4.97-2.64-5.45-5.37v-45.9c.22-2.68,2.61-5.58,5.39-5.58l23.95-.05.02-34.61c0-2.98,2.47-6.59,5.37-7.55l46.51-15.37c2.41-.8,6.72.43,8.37,1.97,1.38,1.29,2.71,4.64,2.71,7.04v48.54s27.77-.01,27.77-.01c3.27,0,5.82,3,5.94,6.22Z"/>
      <path class="b" d="M1288.1,264.86l-39.55,43.25c-15.2-20.05-40.21-28.09-63.9-20.31-21.34,7.01-37.53,26.76-38.88,50.36-1.59,27.93,16.47,52.55,43.91,59.17l.02,58.87c-60.05-6.77-104.67-59.08-102.09-119.04,1.97-45.9,31.23-86.04,72.53-102.19,45.26-17.7,95.4-5.84,127.96,29.89Z"/>
      <path class="b" d="M1436.46,444.07v4.97c-.94,1.29-4.01,4.98-5.97,4.98l-60.78.1c-3.19.01-6.75-1.61-8.75-4.39l-61.53-85.7-20.43,21.21-.07,66.43c-.01,2.53-2.67,5.34-4.57,5.34h-57.88c-2.46-.01-4.91-2.93-4.91-5.99l.03-73.2,35.4-38.59,95.89-104.97c2.96-3.24,6.62-5.19,10.95-5.19h55.81c2.69,0,5.78,2.14,6.96,3.77,1.11,1.53,1.88,6.18.38,7.75l-75.63,79.77,16.03,20.79,62.66,81.46,16.41,21.46Z"/>
      <rect class="b" x="216.77" y="228.28" width="62.7" height="227.73"/>
    </g>
  </g>
</svg>